PathFileType	4	(X/Y/Z)	C:/Users/opensim2020/Desktop/walking_exp_matlab/subject02_walking11_straight_04.trc	
DataRate	CameraRate	NumFrames	NumMarkers	Units	OrigDataRate	OrigDataStartFrame	OrigNumFrames	
100.00	100.00	6	42	mm	100.00	3255	227	
Frame#	Time	LFHD			RFHD			LBHD			RBHD			C7			T10			CLAV			STRN			RBAK			LSHO			LUPA			LELB			LFRM			LWRA			LWRB			LFIN			RSHO			RUPA			RELB			RFRM			RWRA			RWRB			RFIN			LASI			RASI			LPSI			RPSI			LTHI			LKNE			LTIB			LANK			LHEE			LTOE			RTHI			RKNE			RTIB			RANK			RHEE			RTOE			*39			*40			*41			
		X1	Y1	Z1	X2	Y2	Z2	X3	Y3	Z3	X4	Y4	Z4	X5	Y5	Z5	X6	Y6	Z6	X7	Y7	Z7	X8	Y8	Z8	X9	Y9	Z9	X10	Y10	Z10	X11	Y11	Z11	X12	Y12	Z12	X13	Y13	Z13	X14	Y14	Z14	X15	Y15	Z15	X16	Y16	Z16	X17	Y17	Z17	X18	Y18	Z18	X19	Y19	Z19	X20	Y20	Z20	X21	Y21	Z21	X22	Y22	Z22	X23	Y23	Z23	X24	Y24	Z24	X25	Y25	Z25	X26	Y26	Z26	X27	Y27	Z27	X28	Y28	Z28	X29	Y29	Z29	X30	Y30	Z30	X31	Y31	Z31	X32	Y32	Z32	X33	Y33	Z33	X34	Y34	Z34	X35	Y35	Z35	X36	Y36	Z36	X37	Y37	Z37	X38	Y38	Z38	X39	Y39	Z39	X40	Y40	Z40	X41	Y41	Z41	X42	Y42	Z42	

29	0.280	-995.97955	559.40839	1753.46118	-1138.66272	565.64221	1731.78503	-980.66095	690.50562	1681.22388	-1122.39099	709.31635	1658.96057	-1055.65857	749.96381	1539.65869	-1067.10754	807.39056	1264.84705	-1040.00549	612.09900	1467.96008	-1058.97083	562.56134	1296.52783	-1129.03503	807.25848	1370.03235	-873.73785	690.04089	1506.19751	-795.24786	737.00604	1311.28540	-786.53833	766.16516	1174.26086	-768.63983	785.92841	1045.08215	-789.34399	755.85052	908.66797	-760.55292	803.28943	922.89948	-754.57910	798.05157	855.36322	-1237.48181	662.55273	1512.91760	-1334.46057	666.96155	1325.52539	-1357.37781	636.83789	1181.86206	-1377.93774	586.46606	1073.41357	-1360.49072	515.69348	958.17792	-1394.87561	559.36084	946.95337	-1398.52441	509.87122	893.91437	-947.11267	566.82715	1002.82269	-1202.25476	586.17480	985.17480	-1010.94745	782.13953	1047.01892	-1125.83984	794.43469	1047.19727	-863.42969	581.84241	700.11536	-883.22992	564.15967	502.80087	-889.16412	641.08618	326.66541	-914.04340	662.85883	104.78286	-972.79138	688.06866	77.86230	-873.13251	523.44769	51.89542	-1241.37402	678.96112	677.59814	-1188.76685	689.25439	469.29230	-1179.63904	738.77673	286.74786	-1128.90857	758.30603	96.54218	-1067.18140	787.19110	44.22792	-1160.17407	609.17578	41.07958	-1083.52722	663.08185	1818.93945	-3357.16919	2845.90210	1034.35229			 
30	0.290	-996.08710	552.27545	1752.78223	-1138.88000	557.75555	1731.63770	-981.64484	683.76343	1681.04834	-1123.67651	701.67871	1659.17236	-1057.33887	742.97229	1539.53992	-1068.27295	800.74402	1264.82043	-1041.24756	605.26971	1467.84839	-1060.44958	555.78314	1296.20142	-1131.26184	800.16846	1370.27161	-875.26843	683.90326	1505.76440	-797.28802	731.58972	1311.01563	-788.45343	761.19110	1174.07739	-770.49121	780.97443	1044.86462	-790.26434	750.37866	908.51526	-762.49213	798.35266	922.65613	-756.05206	792.67651	855.24506	-1239.21167	654.81152	1513.38367	-1336.23047	657.71594	1325.90979	-1359.50415	626.05084	1182.66272	-1379.20947	574.17200	1074.59802	-1361.17078	501.98203	960.42670	-1395.86548	545.26971	948.50854	-1399.00366	494.90338	896.02112	-948.32361	559.69189	1002.46613	-1203.46509	580.22327	984.27930	-1011.25049	775.42480	1047.07666	-1126.04688	788.15607	1047.30786	-864.41040	573.75861	700.34442	-885.34399	555.01410	501.97040	-891.07764	624.14313	322.29800	-914.98462	635.14874	99.22566	-973.62994	660.11047	71.51037	-875.66461	493.39984	52.28558	-1241.39050	675.43005	677.38190	-1188.74182	687.26428	469.10309	-1179.46997	737.88519	286.88956	-1128.70532	758.09900	96.73197	-1067.15991	786.96362	44.33274	-1160.26685	609.27661	40.88338	-1083.99268	655.23730	1818.83203	-3357.10474	2846.00122	1034.23572			 
31	0.300	-996.55310	544.64551	1751.92590	-1139.09949	549.78033	1731.29089	-982.48969	677.11346	1680.58838	-1124.89819	694.11877	1659.21313	-1058.93567	735.99011	1539.29675	-1069.33569	794.15326	1264.67896	-1042.50977	598.37598	1467.49927	-1061.87915	548.99878	1295.75818	-1132.87476	793.48395	1370.10156	-876.78314	677.68158	1505.24243	-799.14441	725.92694	1310.66614	-790.54767	755.89551	1173.76392	-772.44537	775.87555	1044.50110	-791.22412	744.60162	908.38324	-764.58179	793.10992	922.26831	-757.53943	787.31818	855.18372	-1240.27173	647.11121	1513.25854	-1337.88367	648.56635	1326.19885	-1361.26123	615.40009	1183.12866	-1380.31396	562.04297	1075.57959	-1361.57556	488.57678	962.47089	-1396.48694	531.41852	949.81018	-1399.32544	480.34601	898.29095	-949.20068	552.66589	1001.98138	-1204.39294	574.24402	983.47595	-1011.46362	768.60553	1046.90015	-1126.24280	781.75171	1047.28308	-865.31622	565.82751	700.01129	-887.60687	546.26794	501.15811	-892.72797	607.55780	318.16556	-915.90253	607.92603	94.53944	-974.27588	632.15405	65.88574	-877.98987	463.62518	53.87777	-1241.34546	671.82458	677.19135	-1188.73364	685.21997	468.95413	-1179.27625	736.88110	287.09863	-1128.48096	757.92114	96.96642	-1066.94702	786.87561	44.62195	-1160.44885	609.25165	40.85661	-1084.44775	647.51764	1818.66321	-3360.33228	2845.28003	1034.13562			 
32	0.310	-996.34729	537.86786	1751.38098	-1139.33911	541.99023	1731.04053	-983.76563	669.84937	1679.77527	-1126.05371	686.57849	1659.12500	-1060.49939	728.97528	1538.94873	-1070.27954	787.54529	1264.40869	-1043.85229	591.43402	1466.88184	-1063.15820	542.16272	1295.19580	-1134.37915	786.08362	1369.79541	-878.19495	671.35663	1504.64136	-800.95465	720.62494	1310.33521	-792.57996	750.40582	1173.28918	-774.67615	770.51862	1044.06396	-792.13617	738.57562	908.04120	-766.62335	787.27802	921.53461	-759.10541	781.70538	854.69543	-1241.64539	639.56274	1513.20935	-1339.35657	639.59064	1326.22571	-1362.90137	604.93127	1183.42285	-1381.33594	549.98035	1076.47595	-1361.72961	475.14398	964.42065	-1397.23181	517.56909	951.15674	-1399.45154	465.80078	900.35480	-949.73352	545.67084	1001.30005	-1205.12366	568.12891	982.78662	-1011.67853	761.74597	1046.52673	-1126.35925	775.28687	1047.07874	-866.24805	558.22925	699.76215	-889.91852	537.59540	500.26346	-894.16736	591.10992	314.37244	-916.80676	580.81384	90.73433	-975.12323	604.32123	60.98869	-880.36078	434.27472	56.45017	-1241.27722	668.11639	676.98596	-1188.68811	683.00488	468.79175	-1179.07825	735.80621	287.28223	-1128.28491	757.70422	97.20243	-1066.62903	786.56848	44.82449	-1160.65417	609.30768	40.85407	-1084.78894	639.80566	1818.38892	-3357.27515	2845.93970	1034.21301			 
33	0.320	-996.58179	530.79376	1750.17468	-1139.31677	534.39459	1730.77405	-984.36169	663.58362	1679.24646	-1127.18079	679.05505	1658.94299	-1061.91467	721.93774	1538.44360	-1071.08862	780.89618	1264.06140	-1044.91101	584.58118	1466.44458	-1064.32007	535.31415	1294.52832	-1136.05627	779.67999	1369.55432	-879.50934	664.88019	1503.98657	-802.73126	714.56720	1309.70520	-794.52612	744.57672	1172.68115	-776.27655	764.98077	1043.47156	-793.11475	732.26379	907.47491	-768.44873	781.36981	920.97577	-760.61206	775.84424	854.21167	-1242.77124	631.99072	1512.79211	-1340.33813	630.78284	1325.88550	-1364.47656	594.64978	1183.51892	-1382.37451	538.16339	1077.24194	-1361.88623	462.15610	966.19049	-1397.75305	503.93698	952.30542	-1399.50745	451.47409	902.34198	-950.19629	538.71777	1000.50360	-1205.82117	562.04352	982.15802	-1011.80981	754.82593	1045.97461	-1126.43481	768.78979	1046.72632	-867.10553	550.58374	699.11768	-892.28534	528.90924	499.27637	-895.43652	574.34589	310.88242	-917.58313	554.10364	87.70923	-975.05322	577.34302	56.97040	-882.70685	405.74161	59.91327	-1241.20508	664.29816	676.78723	-1188.72021	680.63501	468.56601	-1178.88159	734.61517	287.47482	-1128.07507	757.46484	97.46790	-1066.50671	786.40466	45.19064	-1160.88257	609.36420	40.96408	-1085.21350	632.14581	1818.05688	-3360.32739	2845.27490	1034.20276			 
34	0.330	-996.29401	524.01770	1749.41040	-1139.53101	526.67139	1730.27051	-985.32159	656.51825	1678.45593	-1128.22070	671.58783	1658.56836	-1063.34949	714.93707	1537.88721	-1071.83081	774.21515	1263.60364	-1046.05945	577.63983	1465.77478	-1065.37952	528.46179	1293.78833	-1137.06262	772.01526	1368.91785	-880.78247	658.28833	1503.23926	-804.27936	708.50281	1309.13135	-796.24878	738.60754	1172.08362	-777.97870	758.60419	1042.89856	-794.00177	725.71576	906.89435	-770.42657	775.44189	920.27081	-762.15051	769.43042	853.48615	-1244.14783	624.45624	1512.35461	-1342.01648	622.15894	1325.69373	-1366.04749	584.54718	1183.50684	-1383.26379	526.53534	1077.83630	-1361.95264	449.23248	967.91412	-1398.17200	490.52814	953.37195	-1399.35339	437.29849	904.19202	-950.50116	531.75873	999.63159	-1206.21863	555.60217	981.56958	-1011.91534	747.90277	1045.35596	-1126.44604	762.24646	1046.25916	-867.99652	543.10535	698.23547	-894.52252	520.24933	498.26147	-896.59180	557.62305	307.91705	-918.06250	527.91559	85.61291	-975.98792	549.47144	53.54451	-885.14392	377.73306	64.05473	-1241.10791	660.26550	676.55548	-1188.69556	678.03766	468.34824	-1178.47559	733.39990	287.68759	-1127.84326	757.11609	97.66866	-1066.18616	786.25037	45.43610	-1161.07727	609.35254	40.96289	-1085.27844	624.79492	1817.51563	-3357.17993	2845.85938	1034.24829			 
